PathFileType	4	(X/Y/Z)	C:/Users/beibeiliu/ov580/test_trc\sequence.29_training_dense_right.trc
DataRate	CameraRate	NumFrames	NumMarkers	Units	OrigDataRate	OrigDataStartFrame	OrigNumFrames
120	120	12	19	mm	120	58	200
Frame#	Time	ThumbCMC			ThumbMCP			ThumbIP			ThumbTip			IndexMCP			IndexPIP			IndexTip			MiddleMCP			MiddlePIP			MiddleTip			RingMCP			RingPIP			RingTip			PinkyMCP			PinkyPIP			PinkyTip			BackHand1			BackHand2			BackHand3	
		X0	Y0	Z0	X1	Y1	Z1	X2	Y2	Z2	X3	Y3	Z3	X4	Y4	Z4	X5	Y5	Z5	X6	Y6	Z6	X7	Y7	Z7	X8	Y8	Z8	X9	Y9	Z9	X10	Y10	Z10	X11	Y11	Z11	X12	Y12	Z12	X13	Y13	Z13	X14	Y14	Z14	X15	Y15	Z15	X16	Y16	Z16	X17	Y17	Z17	X18	Y18	Z18	
57	0.475	112.789	46.6746	154.682	91.2954	50.3558	133.265	76.4952	55.6199	111.244	68.2463	56.3748	97.6647	120.404	34.9705	81.6522	113.717	30.4568	57.0048	107.592	22.7278	31.8159	139.605	10.6054	77.3656	132.062	1.15591	51.2194	123.992	-13.6601	29.5061	150.685	-6.58106	86.5057	145.316	-18.0174	62.7126	131.465	-30.7343	39.9123	160.751	-24.0996	99.8227	156.498	-35.0397	82.2862	154.107	-53.1461	58.7829	161.515	15.2908	132.652	166.789	19.2886	157.963	145.971	39.9266	140.338	
58	0.483333	112.533	46.2083	151.648	90.316	50.3384	136.643	76.2321	56.9088	115.623	66.3376	56.3612	95.4266	120.428	32.9411	81.2615	110.12	32.6432	55.4477	105.367	25.3836	32.779	138.516	11.7903	78.379	132.901	-1.7237	50.4199	120.716	-12.5264	25.3922	147.387	-2.92141	84.3169	143.995	-20.5083	61.0773	132.531	-31.3191	41.004	159.63	-23.2359	100.746	157.019	-37.1633	81.6689	155.406	-52.7273	60.3909	161.692	11.9651	133.903	166.823	20.3076	162.464	145.143	41.0377	141.745	
59	0.491667	112.154	45.2168	152.445	88.8308	52.9658	135.956	77.966	51.5724	111.708	65.8321	55.795	96.3052	117.113	35.7492	81.0606	110.772	30.8372	56.9006	106.932	22.8159	31.346	136.657	10.6132	74.2666	131.064	-0.293943	50.2053	122.407	-12.7949	28.1898	148.753	-6.05413	83.1678	143.953	-20.0524	60.5152	132.919	-34.3775	40.8662	158.729	-22.975	101.983	156.732	-38.0533	83.1208	151.601	-50.4966	62.2132	159.382	12.3218	128.251	166.074	20.7939	160.734	145.499	40.853	141.465	
60	0.5	109.57	48.5429	154.667	91.0058	48.9433	135.412	76.1174	54.85	113.613	63.0637	59.3256	95.7934	118.513	34.6461	77.7236	107.346	32.2748	53.3249	102.421	26.642	29.2404	135.336	14.3644	77.1062	127.578	4.18545	52.0314	120.202	-15.7016	24.2648	147.338	-7.22927	80.1562	141.173	-19.7077	61.1599	129.914	-34.7717	39.2226	157.346	-24.0811	101.614	151.382	-35.4914	78.4942	151.908	-52.7681	62.4216	161.185	12.4749	129.257	165.878	20.3933	158.775	144.337	41.0797	137.573	
61	0.508333	110.715	47.2206	153.019	88.3721	53.1187	139.731	74.6989	57.5721	115.501	66.266	57.7181	97.8779	118.416	36.659	84.3165	110.828	30.904	56.0325	102.698	28.2495	35.1187	136.927	11.3343	80.1209	127.029	4.5585	51.5767	116.789	-9.72763	28.0481	144.281	-4.00993	83.4799	139.982	-15.8833	63.5263	129.26	-31.7836	41.5764	154.241	-22.6479	98.467	151.793	-36.9606	84.0184	147.314	-51.9851	57.9394	159.494	10.1888	130.541	165.041	18.0011	159.928	142.428	42.4749	141.157	
62	0.516667	114.376	46.6187	161.357	93.246	51.119	145.568	79.2058	58.2756	120.037	69.0493	62.3512	104.443	124.221	33.7565	90.6106	116.286	31.5977	66.0421	106.124	30.2419	39.5505	138.744	10.4647	80.5595	128.566	4.59813	58.4167	116.657	-11.6137	32.2907	146.38	-9.31311	91.3055	136.839	-17.2778	64.6766	124.318	-32.5133	42.4566	154.121	-28.9868	107.165	147.94	-40.1196	85.3937	142.125	-52.3847	62.8781	160.421	6.57146	139.82	167.655	10.2281	169.154	146.09	34.9395	147.696	
63	0.525	110.221	30.8466	171.672	89.8097	35.4467	155.561	75.7604	43.4347	133.758	63.4826	47.4598	113.804	122.446	20.6252	100.897	111.615	25.3651	74.6521	106.672	15.9487	49.2996	135.679	-2.07636	94.0759	127.236	-7.52136	70.9168	114.804	-22.4745	40.8444	144.205	-21.4837	101.588	136.506	-30.8075	76.5196	123.249	-41.3491	54.9158	151.104	-40.9422	115.684	145.107	-48.1932	96.0288	141.946	-61.8699	72.0775	159.184	-7.81828	146.856	163.07	-4.50009	180.346	141.821	21.8195	159.494	
64	0.533333	108.734	17.6694	184.511	85.3052	24.4488	161.537	71.2426	29.6207	143.79	61.4652	31.6266	120.791	119.93	17.1377	110.593	110.652	17.5416	80.5222	106.555	10.1165	56.5607	133.28	-4.76178	100.601	127.26	-15.0751	75.6393	113.601	-23.1844	49.6491	143.591	-26.5627	106.772	136.546	-37.2602	78.0889	123.549	-43.7355	60.3512	149.995	-45.6159	119.288	145.748	-55.9388	97.6266	142.998	-68.1994	76.1966	158.008	-17.9153	153.575	162.558	-14.5235	186.008	141.868	10.7414	169.534	
65	0.541667	106.902	18.4459	183.226	86.0477	19.3322	163.935	71.2574	27.4036	143.857	60.88	28.0287	123.827	121.54	18.7021	111.419	114.935	16.3258	81.9232	109.095	13.7303	59.9118	137.735	-4.68693	98.2829	129.004	-10.2256	76.2103	114.838	-17.8117	51.3904	143.243	-21.2128	104.056	136.385	-29.1475	80.1057	122.117	-38.341	57.0816	150.871	-42.4709	116.445	146.388	-54.6192	94.3236	141.248	-61.8305	74.5746	158.448	-15.5519	157.032	160.178	-13.1452	187.942	144.569	11.9746	167.847	
66	0.55	106.209	24.783	179.88	85.0743	25.0291	162.398	69.7435	33.8385	138.156	61.3601	32.6632	118.72	122.235	25.3833	104.947	114.697	29.0467	82.3655	107.194	24.3878	53.3438	137.59	5.05415	98.9813	129.861	-0.796437	71.8027	115.26	-12.2513	44.4556	145.774	-14.804	98.2676	137.695	-22.7723	73.39	124.145	-29.595	54.0087	152.326	-34.7206	113.228	148.051	-43.2966	94.2089	141.842	-56.7382	68.6064	160.324	-9.92656	149.817	160.774	-9.37396	181.531	142.937	17.7778	168.142	
67	0.558333	104.108	30.6872	178.265	83.2436	31.1437	158.917	70.6092	36.4781	134.697	58.9757	39.5328	116.909	121.764	33.1456	103.236	112.728	36.8044	78.1582	107.717	30.9182	51.8254	134.168	15.1298	92.3914	129.468	7.395	69.0959	116.672	-2.32415	43.425	145.926	-7.15855	100.177	138.419	-12.3524	73.8334	124.155	-21.2607	50.5905	152.397	-29.1996	110.581	146.216	-34.4636	84.4673	141.961	-45.8742	64.4196	157.262	-2.27496	150.44	161.563	-4.87276	181.217	140.243	26.2913	163.598	
68	0.566667	100.276	29.6369	176.815	80.8419	30.5041	158.973	63.0396	40.9191	136.131	55.0528	42.2363	115.227	119.101	36.3577	104.669	113.786	39.1719	78.6765	104.567	39.1628	53.1412	135.757	17.4408	90.2654	128.526	12.2459	67.4709	116.133	3.72637	40.1195	145.601	-2.88354	96.1889	137.118	-5.872	71.2774	122.39	-13.7449	44.787	150.845	-22.4114	106.372	146.581	-27.6993	86.5733	140.232	-36.9659	58.111	153.931	2.88689	149.23	157.495	-1.383	176.086	139.368	24.7597	162.24	
